Coordinates
version=1
nRows=17
nColumns=36
inDegrees=yes

Units are S.I. units (second, meters, Newtons, ...)
If the header above contains a line with 'inDegrees', this indicates whether rotational values are in degrees (yes) or radians (no).

endheader
time	pelvis_tilt	pelvis_list	pelvis_rotation	pelvis_tx	pelvis_ty	pelvis_tz	hip_flexion_r	hip_adduction_r	hip_rotation_r	knee_angle_r	knee_angle_r_beta	ankle_angle_r	subtalar_angle_r	mtp_angle_r	hip_flexion_l	hip_adduction_l	hip_rotation_l	knee_angle_l	knee_angle_l_beta	ankle_angle_l	subtalar_angle_l	mtp_angle_l	lumbar_extension	lumbar_bending	lumbar_rotation	arm_flex_r	arm_add_r	arm_rot_r	elbow_flex_r	pro_sup_r	arm_flex_l	arm_add_l	arm_rot_l	elbow_flex_l	pro_sup_l
      0.00000000	     -5.85591637	     -2.31104832	     10.76164461	     -0.97165732	      1.24109760	     -0.08930313	     14.60894297	     -3.48365581	     -2.35648384	     12.12434528	      0.21160974	      4.94605894	     -2.34280945	     -6.43887211	     10.15709950	     -2.52728751	      6.90489331	      4.36089997	      0.07611206	     13.79681482	      3.93940840	     -6.43887211	      8.81148244	     -0.47432422	     -7.56546553	     -0.90578717	    -17.08343767	      7.93039662	     42.03199681	     88.92138829	     -6.02213249	    -13.86341280	      8.04561533	     17.08186703	     90.42250845
      0.01666670	     -6.66465074	     -2.51986051	      9.97133814	     -0.97008125	      1.23916679	     -0.09076881	     17.13202032	     -3.49052034	     -1.82123369	     13.70035946	      0.23911638	      6.05212043	     -0.75021659	     -6.68532442	     11.66996227	     -2.71197062	      6.97007297	      6.19022289	      0.10803977	     13.95103397	      4.44962697	     -6.68532442	     10.52570070	     -0.65414192	     -4.65804306	     -4.14036243	    -18.54228319	      6.51428936	     45.72317223	     90.16726498	     -4.69452224	    -13.48146158	      9.69848410	     15.24459771	     96.50011687
      0.03333330	     -8.03052611	     -2.04209151	      9.99383849	     -0.96951137	      1.23789395	     -0.09091451	     18.12355452	     -4.56615321	     -1.69229911	     12.73968600	      0.22234947	      5.85040551	     -0.25443226	     -6.82174700	     13.20727036	     -2.08741938	      6.64393276	      5.96010551	      0.10402346	     14.33320268	      5.68467893	     -6.82174700	     12.40152347	     -1.64222172	     -4.44813881	     -5.11451366	    -19.21519382	      8.22679233	     47.09005474	     91.07048934	     -4.66589681	    -13.63328627	     11.99520428	     14.96931417	     98.70703453
      0.05000000	     -8.55826070	     -1.74418602	     10.01386289	     -0.96249261	      1.23650167	     -0.08739528	     18.34296287	     -5.23285416	     -2.74602511	     12.85818307	      0.22441763	      6.75706457	      1.27221604	     -6.83826786	     13.93991829	     -1.88144360	      5.98537046	      6.33057145	      0.11048932	     15.55754092	      6.88724933	     -6.83826786	     13.67304683	     -2.31876482	     -4.90015023	     -5.34225794	    -19.33963384	      8.74848557	     47.77755955	     91.51326240	     -5.21348394	    -13.80446314	     12.28994876	     14.77991946	     99.32170233
      0.06666670	     -9.20398088	     -1.49770270	      9.69947618	     -0.96106506	      1.23104450	     -0.08677702	     18.83669640	     -5.58831213	     -3.38156779	     13.51062022	      0.23580481	      7.20254525	      2.14317265	     -6.90881011	     14.82358358	     -1.71987487	      4.71140345	      7.00795497	      0.12231189	     16.44302774	      8.21491672	     -6.90881011	     14.95818745	     -2.77350330	     -5.22260316	     -4.56203170	    -19.90406338	     11.02619091	     48.04790264	     93.23404985	     -6.08142676	    -14.09666453	     13.21437433	     14.80094742	    101.71499084
      0.08333330	     -9.71304920	     -1.42127911	      9.22027396	     -0.95458087	      1.22782359	     -0.08316328	     19.20834825	     -5.55938304	     -3.76396531	     14.28977324	      0.24940359	      7.76160711	      2.63238992	     -6.94966370	     15.39295925	     -1.76733755	      3.73603066	      7.63709452	      0.13329244	     17.07677493	      9.02461032	     -6.94966370	     16.17176790	     -2.98495272	     -4.99919485	     -4.46451359	    -20.24542340	     11.89614644	     48.76907916	     93.71581942	     -7.04653736	    -14.20470455	     12.93158342	     15.00959890	    102.52006667
      0.10000000	    -10.22261651	     -1.40308804	      8.78418689	     -0.95324987	      1.23020373	     -0.08240633	     19.69628801	     -5.41229312	     -3.73168444	     14.87987505	      0.25970281	      8.28710150	      2.99381155	     -7.00958627	     15.91378053	     -1.86164296	      3.09795622	      8.02740114	      0.14010458	     17.42681026	      9.52983207	     -7.00958627	     17.29088754	     -3.11460142	     -4.90287784	     -4.66876735	    -20.46682168	     12.47065404	     49.30812132	     92.41124183	     -7.91159538	    -14.30112645	     13.25092417	     15.25441264	    101.71760700
      0.11666670	    -10.75683234	     -1.46353716	      8.27731392	     -0.95455309	      1.22614721	     -0.07410124	     20.38320686	     -5.04138016	     -3.32980315	     15.48619108	      0.27028502	      8.79397712	      2.91137167	     -7.02059626	     16.62506559	     -2.07548665	      2.39366242	      8.62420061	      0.15052070	     17.84888172	      9.46669494	     -7.02059626	     18.42351599	     -3.10597378	     -4.44001249	     -4.59886934	    -20.51229365	     13.03894129	     49.73106693	     92.63507853	     -8.74013234	    -14.43522564	     13.29188269	     15.42364908	    101.96224233
      0.13333330	    -11.17687237	     -1.57899106	      8.01900657	     -0.95339454	      1.22877574	     -0.07381159	     20.81109195	     -4.70281328	     -3.06116497	     15.79993744	      0.27576093	      9.22153504	      2.80201696	     -7.08076124	     17.09600212	     -2.30196287	      1.65238115	      8.99029474	      0.15691024	     18.09240175	     10.00885540	     -7.08076124	     19.29389573	     -3.07375616	     -4.50018842	     -4.15858063	    -20.78828319	     14.83996581	     49.76272622	     92.65522483	     -9.40650715	    -14.66667752	     13.53270220	     15.76812039	    102.10648576
      0.15000000	    -11.58549609	     -1.63953760	      7.74187915	     -0.95292385	      1.22745604	     -0.07384410	     21.23378662	     -4.47820131	     -2.87715674	     15.99516548	      0.27916830	      9.66374806	      2.90094602	     -7.16403064	     17.68754193	     -2.48953271	      1.12148115	      9.44070087	      0.16477131	     18.38179085	     10.29826583	     -7.16403064	     19.99690538	     -3.03533539	     -4.57256232	     -3.77527474	    -20.75147815	     15.48066087	     49.77770791	     94.23174179	    -10.63400163	    -14.72780701	     11.04691159	     17.12236268	    104.62303642
      0.16666670	    -11.61038601	     -1.67054659	      7.71854891	     -0.95350067	      1.23198621	     -0.07389246	     21.15848493	     -4.35100512	     -2.94134489	     16.03468012	      0.27985796	      9.76644886	      2.85336818	     -7.16435793	     17.69150783	     -2.57837298	      1.05822902	      9.58845557	      0.16735012	     18.31611169	     10.30420260	     -7.16435793	     20.17513538	     -3.04559163	     -4.38806862	     -3.63298275	    -20.67794022	     15.49707870	     49.83855965	     94.23083312	    -10.71431383	    -14.79081830	     11.04047456	     17.11083410	    104.62222189
      0.18333330	    -12.13244246	     -1.78500227	      7.44591967	     -0.94580830	      1.23294392	     -0.06969605	     21.58030420	     -4.09798819	     -2.86083249	     15.99931250	      0.27924068	     10.15533201	      2.77946125	     -7.17038245	     18.23543422	     -2.86654137	      0.27517215	     10.00018207	      0.17453610	     18.39552204	     10.94633475	     -7.17038245	     21.14228366	     -2.87930734	     -3.82510648	     -3.76201934	    -20.65954356	     15.97086492	     49.50751921	     94.24612569	    -11.07809545	    -14.99215885	     11.07398766	     17.44091117	    104.63968170
      0.20000000	    -12.19228866	     -1.85066534	      7.33350379	     -0.94607537	      1.23242761	     -0.06921607	     21.42062718	     -3.89254893	     -2.86220580	     15.78470723	      0.27549511	     10.25408635	      2.71828584	     -7.20439638	     18.00639703	     -3.06069517	     -0.04476723	      9.87350586	      0.17232519	     18.38795564	     11.40425044	     -7.20439638	     21.61371272	     -2.73131272	     -3.93493065	     -3.26851684	    -20.60843888	     16.82320795	     49.11662047	     92.80254537	    -11.92807727	    -15.21299442	     11.48078332	     18.08039755	    103.46736593
      0.21666670	    -12.21834000	     -1.84395639	      7.10077017	     -0.93953999	      1.23206473	     -0.06547489	     21.17425143	     -3.70704454	     -2.71201931	     15.51099174	      0.27071788	     10.47578281	      2.67849602	     -7.23215895	     17.68504551	     -3.20134264	     -0.19826396	      9.67169851	      0.16880298	     18.29690383	     11.62339604	     -7.23215895	     22.05478506	     -2.60502983	     -4.45612619	     -2.23484201	    -20.52161980	     18.44138018	     48.23162803	     93.09432393	    -13.35653966	    -15.41107753	     11.39242501	     19.20611466	    103.50834712
      0.23333330	    -12.17110783	     -1.84863680	      6.87507312	     -0.93967149	      1.23166683	     -0.06501062	     20.91025978	     -3.51637192	     -2.59397495	     15.20079898	      0.26530399	     10.51925219	      2.74502839	     -7.24889430	     17.36473207	     -3.34065237	     -0.37703869	      9.30998716	      0.16248993	     18.27220249	     11.86213926	     -7.24889430	     22.26636353	     -2.39734789	     -4.32885946	     -2.08453693	    -20.46986254	     18.70188387	     48.12890295	     91.88909089	    -14.01694172	    -15.53110349	     11.36175660	     19.80723163	    102.01275064
      0.25000000	    -12.29469356	     -1.91175593	      6.80237191	     -0.94741296	      1.22269360	     -0.06058836	     21.06188235	     -3.31184056	     -2.47583341	     15.10144762	      0.26356998	     10.64289014	      2.64977484	     -7.28311274	     17.51168468	     -3.43522929	     -0.31120450	      9.25368149	      0.16150721	     18.22800787	     11.78742248	     -7.28311274	     22.66065015	     -2.22314552	     -4.90249828	     -0.95758020	    -20.43972549	     20.63594198	     47.08062750	     92.25669347	    -14.66778764	    -15.50352377	     11.00943612	     20.06368349	    102.20535766
      0.26666670	    -12.20497264	     -1.86811265	      6.73505155	     -0.94755424	      1.22298494	     -0.06010660	     20.94048942	     -3.23808433	     -2.43817383	     14.94552239	      0.26084857	     10.71732919	      2.65834463	     -7.31783372	     17.38901493	     -3.48902042	     -0.59881068	      9.17734373	      0.16017486	     18.34521435	     12.10081617	     -7.31783372	     22.66783135	     -2.10563845	     -4.79509962	     -0.61130644	    -20.28845062	     20.90064912	     46.70792119	     90.38219551	    -14.97346205	    -15.64024937	     10.99371654	     20.63326899	     99.93843221
